{
  "accessors": [
    {
      "bufferView": 2,
      "componentType": 5126,
      "count": 33052,
      "max": [
        0.7804641127586365,
        0.4168480932712555,
        0.849297821521759
      ],
      "min": [
        -0.768146812915802,
        -0.434557169675827,
        -0.8411480188369751
      ],
      "type": "VEC3"
    },
    {
      "bufferView": 2,
      "byteOffset": 396624,
      "componentType": 5126,
      "count": 33052,
      "max": [
        0.9997718930244446,
        0.9999992847442627,
        1.0
      ],
      "min": [
        -0.9999702572822571,
        -0.9999943375587463,
        -0.9999884963035583
      ],
      "type": "VEC3"
    },
    {
      "bufferView": 3,
      "componentType": 5126,
      "count": 33052,
      "max": [
        0.999984860420227,
        0.9999758005142212,
        0.9997112154960632,
        -1.0
      ],
      "min": [
        -0.9999986886978149,
        -0.9999781250953674,
        -0.9998779892921448,
        -1.0
      ],
      "type": "VEC4"
    },
    {
      "bufferView": 1,
      "componentType": 5126,
      "count": 33052,
      "max": [
        0.9901279211044312,
        0.997169017791748
      ],
      "min": [
        0.0028749099001288414,
        0.0028299090918153524
      ],
      "type": "VEC2"
    },
    {
      "bufferView": 1,
      "byteOffset": 264416,
      "componentType": 5126,
      "count": 33052,
      "max": [
        0.9901279211044312,
        0.997169017791748
      ],
      "min": [
        0.0028749099001288414,
        0.0028299090918153524
      ],
      "type": "VEC2"
    },
    {
      "bufferView": 1,
      "byteOffset": 528832,
      "componentType": 5126,
      "count": 33052,
      "max": [
        0.9901279211044312,
        0.997169017791748
      ],
      "min": [
        0.0028749099001288414,
        0.0028299090918153524
      ],
      "type": "VEC2"
    },
    {
      "bufferView": 1,
      "byteOffset": 793248,
      "componentType": 5126,
      "count": 33052,
      "max": [
        0.9901279211044312,
        0.997169017791748
      ],
      "min": [
        0.0028749099001288414,
        0.0028299090918153524
      ],
      "type": "VEC2"
    },
    {
      "bufferView": 1,
      "byteOffset": 1057664,
      "componentType": 5126,
      "count": 33052,
      "max": [
        0.9901279211044312,
        0.997169017791748
      ],
      "min": [
        0.0028749099001288414,
        0.0028299090918153524
      ],
      "type": "VEC2"
    },
    {
      "bufferView": 1,
      "byteOffset": 1322080,
      "componentType": 5126,
      "count": 33052,
      "max": [
        0.9901279211044312,
        0.997169017791748
      ],
      "min": [
        0.0028749099001288414,
        0.0028299090918153524
      ],
      "type": "VEC2"
    },
    {
      "bufferView": 1,
      "byteOffset": 1586496,
      "componentType": 5126,
      "count": 33052,
      "max": [
        0.9901279211044312,
        0.997169017791748
      ],
      "min": [
        0.0028749099001288414,
        0.0028299090918153524
      ],
      "type": "VEC2"
    },
    {
      "bufferView": 1,
      "byteOffset": 1850912,
      "componentType": 5126,
      "count": 33052,
      "max": [
        0.9901279211044312,
        0.997169017791748
      ],
      "min": [
        0.0028749099001288414,
        0.0028299090918153524
      ],
      "type": "VEC2"
    },
    {
      "bufferView": 1,
      "byteOffset": 2115328,
      "componentType": 5126,
      "count": 33052,
      "max": [
        0.9901279211044312,
        0.997169017791748
      ],
      "min": [
        0.0028749099001288414,
        0.0028299090918153524
      ],
      "type": "VEC2"
    },
    {
      "bufferView": 1,
      "byteOffset": 2379744,
      "componentType": 5126,
      "count": 33052,
      "max": [
        0.9901279211044312,
        0.997169017791748
      ],
      "min": [
        0.0028749099001288414,
        0.0028299090918153524
      ],
      "type": "VEC2"
    },
    {
      "bufferView": 0,
      "componentType": 5125,
      "count": 149997,
      "type": "SCALAR"
    }
  ],
  "asset": {
    "extras": {
      "author": "vicente betoret ferrero (https://sketchfab.com/deathcow)",
      "license": "CC-BY-4.0 (http://creativecommons.org/licenses/by/4.0/)",
      "source": "https://sketchfab.com/3d-models/toy-unicorn-bbe0610bc7494eb39cdc3e5b15291787",
      "title": "toy unicorn"
    },
    "generator": "Sketchfab-15.55.0",
    "version": "2.0"
  },
  "bufferViews": [
    {
      "buffer": 0,
      "byteLength": 599988,
      "name": "floatBufferViews",
      "target": 34963
    },
    {
      "buffer": 0,
      "byteLength": 2644160,
      "byteOffset": 599988,
      "byteStride": 8,
      "name": "floatBufferViews",
      "target": 34962
    },
    {
      "buffer": 0,
      "byteLength": 793248,
      "byteOffset": 3244148,
      "byteStride": 12,
      "name": "floatBufferViews",
      "target": 34962
    },
    {
      "buffer": 0,
      "byteLength": 528832,
      "byteOffset": 4037396,
      "byteStride": 16,
      "name": "floatBufferViews",
      "target": 34962
    }
  ],
  "buffers": [
    {
      "byteLength": 4566228,
      "uri": "scene.bin"
    }
  ],
  "extensionsUsed": [
    "KHR_materials_specular"
  ],
  "images": [
    {
      "uri": "textures/default.006_baseColor.png"
    },
    {
      "uri": "textures/default.006_metallicRoughness.png"
    },
    {
      "uri": "textures/default.006_normal.png"
    }
  ],
  "materials": [
    {
      "doubleSided": true,
      "extensions": {
        "KHR_materials_specular": {
          "specularColorFactor": [
            1.0,
            1.0,
            1.0
          ],
          "specularFactor": 0.0
        }
      },
      "name": "default.006",
      "normalTexture": {
        "index": 2
      },
      "occlusionTexture": {
        "index": 1
      },
      "pbrMetallicRoughness": {
        "baseColorTexture": {
          "index": 0
        },
        "metallicRoughnessTexture": {
          "index": 1
        }
      }
    }
  ],
  "meshes": [
    {
      "name": "model_default.006_0",
      "primitives": [
        {
          "attributes": {
            "NORMAL": 1,
            "POSITION": 0,
            "TANGENT": 2,
            "TEXCOORD_0": 3,
            "TEXCOORD_1": 4,
            "TEXCOORD_2": 5,
            "TEXCOORD_3": 6,
            "TEXCOORD_4": 7,
            "TEXCOORD_5": 8,
            "TEXCOORD_6": 9,
            "TEXCOORD_7": 10,
            "TEXCOORD_8": 11,
            "TEXCOORD_9": 12
          },
          "indices": 13,
          "material": 0,
          "mode": 4
        }
      ]
    }
  ],
  "nodes": [
    {
      "children": [
        1
      ],
      "matrix": [
        1.0,
        0.0,
        0.0,
        0.0,
        0.0,
        2.220446049250313e-16,
        -1.0,
        0.0,
        0.0,
        1.0,
        2.220446049250313e-16,
        0.0,
        0.0,
        0.0,
        0.0,
        1.0
      ],
      "name": "Sketchfab_model"
    },
    {
      "children": [
        2
      ],
      "matrix": [
        1.0,
        0.0,
        0.0,
        0.0,
        0.0,
        0.0,
        1.0,
        0.0,
        0.0,
        -1.0,
        0.0,
        0.0,
        0.0,
        0.0,
        0.0,
        1.0
      ],
      "name": "unicornio.fbx"
    },
    {
      "children": [
        3
      ],
      "name": "RootNode"
    },
    {
      "children": [
        4
      ],
      "matrix": [
        1.0,
        0.0,
        0.0,
        0.0,
        0.0,
        2.220446049250313e-16,
        -1.0,
        0.0,
        0.0,
        1.0,
        2.220446049250313e-16,
        0.0,
        0.0,
        0.0,
        0.0,
        1.0
      ],
      "name": "Scene"
    },
    {
      "children": [
        5
      ],
      "name": "model"
    },
    {
      "mesh": 0,
      "name": "model_default.006_0"
    }
  ],
  "samplers": [
    {
      "magFilter": 9729,
      "minFilter": 9987,
      "wrapS": 10497,
      "wrapT": 10497
    }
  ],
  "scene": 0,
  "scenes": [
    {
      "name": "Sketchfab_Scene",
      "nodes": [
        0
      ]
    }
  ],
  "textures": [
    {
      "sampler": 0,
      "source": 0
    },
    {
      "sampler": 0,
      "source": 1
    },
    {
      "sampler": 0,
      "source": 2
    }
  ]
}
